<svg width="152" height="24" viewBox="0 0 152 24" fill="none" xmlns="http://www.w3.org/2000/svg">
<path d="M10.68 19H1.848V2.824H3.792V17.248H10.68V19ZM22.0695 18.376C21.1255 18.872 19.9735 19.12 18.6135 19.12C16.7735 19.12 15.2855 18.56 14.1495 17.44C13.0295 16.304 12.4695 14.808 12.4695 12.952C12.4695 11.016 12.9735 9.488 13.9815 8.368C14.9895 7.248 16.2855 6.688 17.8695 6.688C19.3895 6.688 20.5975 7.176 21.4935 8.152C22.3895 9.128 22.8375 10.512 22.8375 12.304C22.8375 12.816 22.7975 13.288 22.7175 13.72H14.4135C14.5575 14.92 15.0135 15.84 15.7815 16.48C16.5495 17.12 17.5575 17.44 18.8055 17.44C20.1655 17.44 21.2535 17.16 22.0695 16.6V18.376ZM17.8695 8.344C16.9575 8.344 16.1815 8.672 15.5415 9.328C14.9015 9.984 14.5255 10.92 14.4135 12.136H20.9415V11.656C20.9415 10.648 20.6695 9.848 20.1255 9.256C19.5815 8.648 18.8295 8.344 17.8695 8.344ZM29.4486 17.536C30.3126 17.536 31.0006 17.296 31.5126 16.816C32.0246 16.32 32.2806 15.696 32.2806 14.944V13.384H30.1686C29.1446 13.384 28.3766 13.584 27.8646 13.984C27.3526 14.384 27.0966 14.888 27.0966 15.496C27.0966 16.104 27.2966 16.6 27.6966 16.984C28.0966 17.352 28.6806 17.536 29.4486 17.536ZM32.3046 17.56C31.6806 18.6 30.5446 19.12 28.8966 19.12C27.7606 19.12 26.8406 18.784 26.1366 18.112C25.4486 17.44 25.1046 16.592 25.1046 15.568C25.1046 14.4 25.5446 13.496 26.4246 12.856C27.3206 12.2 28.5366 11.872 30.0726 11.872H32.2806V11.248C32.2806 10.288 32.0646 9.568 31.6326 9.088C31.2006 8.592 30.4726 8.344 29.4486 8.344C28.1526 8.344 27.0006 8.688 25.9926 9.376V7.48C26.9046 6.92 28.1046 6.64 29.5926 6.64C32.6486 6.64 34.1766 8.192 34.1766 11.296V19H32.3046V17.56ZM39.4131 19H37.5171L37.5411 6.832H39.4131V8.968C40.0531 7.464 41.1571 6.712 42.7251 6.712C43.0131 6.712 43.2371 6.728 43.3971 6.76V8.632C43.0611 8.52 42.7171 8.464 42.3651 8.464C41.5171 8.464 40.8131 8.856 40.2531 9.64C39.6931 10.424 39.4131 11.328 39.4131 12.352V19ZM54.9692 19H53.0732V11.128C53.0732 10.232 52.8412 9.552 52.3772 9.088C51.9292 8.608 51.3372 8.368 50.6012 8.368C49.6892 8.368 48.8972 8.72 48.2252 9.424C47.5692 10.128 47.2412 11.104 47.2412 12.352V19H45.3692V6.832H47.2412V8.944C47.9612 7.424 49.2412 6.664 51.0812 6.664C52.2652 6.664 53.2092 7.024 53.9132 7.744C54.6172 8.464 54.9692 9.424 54.9692 10.624V19ZM80.0162 19H78.1202V11.128C78.1202 9.288 77.3442 8.368 75.7922 8.368C75.0242 8.368 74.3362 8.72 73.7282 9.424C73.1202 10.112 72.8162 11.088 72.8162 12.352V19H70.9202V11.128C70.9202 9.288 70.1442 8.368 68.5922 8.368C67.8242 8.368 67.1362 8.72 66.5282 9.424C65.9202 10.112 65.6162 11.088 65.6162 12.352V19H63.7442V6.832H65.6162V8.8C66.2882 7.376 67.4322 6.664 69.0482 6.664C70.9202 6.664 72.1042 7.456 72.6002 9.04C72.9522 8.272 73.4402 7.688 74.0642 7.288C74.7042 6.872 75.4162 6.664 76.2002 6.664C77.4642 6.664 78.4162 7.024 79.0562 7.744C79.6962 8.464 80.0162 9.432 80.0162 10.648V19ZM94.0888 12.952C94.0888 14.76 93.5768 16.256 92.5528 17.44C91.5288 18.624 90.1208 19.216 88.3288 19.216C86.5848 19.216 85.2008 18.632 84.1768 17.464C83.1688 16.28 82.6648 14.792 82.6648 13C82.6648 11.192 83.1848 9.688 84.2248 8.488C85.2808 7.272 86.6488 6.664 88.3288 6.664C90.1688 6.664 91.5848 7.256 92.5768 8.44C93.5848 9.624 94.0888 11.128 94.0888 12.952ZM84.6328 12.976C84.6328 14.24 84.9688 15.32 85.6408 16.216C86.3128 17.096 87.2088 17.536 88.3288 17.536C89.5448 17.536 90.4808 17.104 91.1368 16.24C91.7928 15.36 92.1208 14.272 92.1208 12.976C92.1208 11.632 91.8088 10.528 91.1848 9.664C90.5608 8.784 89.6088 8.344 88.3288 8.344C87.1768 8.344 86.2728 8.792 85.6168 9.688C84.9608 10.584 84.6328 11.68 84.6328 12.976ZM98.7334 19H96.8374L96.8614 6.832H98.7334V8.968C99.3734 7.464 100.477 6.712 102.045 6.712C102.333 6.712 102.557 6.728 102.717 6.76V8.632C102.381 8.52 102.037 8.464 101.685 8.464C100.837 8.464 100.133 8.856 99.5734 9.64C99.0134 10.424 98.7334 11.328 98.7334 12.352V19ZM113.57 18.376C112.626 18.872 111.474 19.12 110.114 19.12C108.274 19.12 106.786 18.56 105.65 17.44C104.53 16.304 103.97 14.808 103.97 12.952C103.97 11.016 104.474 9.488 105.482 8.368C106.49 7.248 107.786 6.688 109.37 6.688C110.89 6.688 112.098 7.176 112.994 8.152C113.89 9.128 114.338 10.512 114.338 12.304C114.338 12.816 114.298 13.288 114.218 13.72H105.914C106.058 14.92 106.514 15.84 107.282 16.48C108.05 17.12 109.058 17.44 110.306 17.44C111.666 17.44 112.754 17.16 113.57 16.6V18.376ZM109.37 8.344C108.458 8.344 107.682 8.672 107.042 9.328C106.402 9.984 106.026 10.92 105.914 12.136H112.442V11.656C112.442 10.648 112.17 9.848 111.626 9.256C111.082 8.648 110.33 8.344 109.37 8.344Z" fill="#FF7235"/>
<path d="M132 12H148" stroke="#FF7235" stroke-width="2" stroke-linecap="round" stroke-linejoin="round"/>
<path d="M141 5L148 12L141 19" stroke="#FF7235" stroke-width="2" stroke-linecap="round" stroke-linejoin="round"/>
</svg>
